<?xml version="1.0" encoding="iso-8859-1"?>
<!-- Uploaded to: SVG Repo, www.svgrepo.com, Generator: SVG Repo Mixer Tools -->
<svg height="800px" width="800px" version="1.1" id="Layer_1" xmlns="http://www.w3.org/2000/svg" xmlns:xlink="http://www.w3.org/1999/xlink" 
	 viewBox="0 0 512.001 512.001" xml:space="preserve">
<g>
	<path style="fill:#90BC42;" d="M388.302,135.167c83.205,18.147,122.778,77.653,123.7,79.053
		C477.793,178.94,406.414,169.457,357.64,167.3l-0.747,0.56c-1.353-1.831-52.018-4.922-53.651-6.602l45.487-33.824
		C348.728,127.435,366.993,148.673,388.302,135.167z"/>
	<path style="fill:#90BC42;" d="M180.779,148.429c-1.691,1.691-25.017,17.029-26.417,18.871
		C105.598,169.457,34.208,178.94,0,214.221c0.933-1.399,40.506-60.905,123.7-79.053h0.011
		C145.02,148.673,180.779,148.429,180.779,148.429z"/>
</g>
<g>
	<path style="fill:#9AD14B;" d="M388.302,135.167c-21.309,13.506-35.292,26.825-35.292,26.825l-0.607,0.583
		c-0.187-0.198-0.373-0.384-0.571-0.583l-34.593,6.263c-3.465-3.465,13.238-26.697,9.202-28.983l0.279-0.49
		c62.958-75.623,165.419-29.274,167.261-28.435C456.122,99.676,416.013,117.58,388.302,135.167z"/>
	<path style="fill:#9AD14B;" d="M123.711,135.167c-27.712-17.587-67.82-35.491-105.68-24.819
		c1.831-0.839,104.304-47.189,167.249,28.435c-4.362,2.356,4.094,17.962,0.384,21.67l-26.662,1.528v0.011
		C159.004,161.993,145.02,148.673,123.711,135.167z"/>
</g>
<path style="fill:#E09B2D;" d="M255.423,157.047l-20.41,49.697l-53.452,47.259l-0.245,0.315l-16.958-12.923
	c-3.954-3.009-7.359-6.462-10.193-10.228c-1.831-2.403-3.429-4.945-4.782-7.581c-1.458-2.834-2.648-5.785-3.557-8.805
	c-4.817-15.838-2.1-33.601,8.537-47.48c1.399-1.843,2.95-3.615,4.642-5.306v-0.011l14.101-14.089
	c3.709-3.709,7.814-6.754,12.176-9.109c22.23-12.083,51.027-6.823,67.238,14.45L255.423,157.047z"/>
<path style="fill:#F7B239;" d="M420.258,409.147c-8.841,8.852-22.871,9.797-32.809,2.204l-62.759-47.807l-14.031-10.695
	l-55.225-42.069l44.775-34.126l7.021-5.342l7.022-5.342l15.278-11.64l60.473,79.38l10.695,14.031l21.775,28.587
	C430.043,386.287,429.099,400.306,420.258,409.147z"/>
<path style="fill:#E09B2D;" d="M423.757,404.715c-0.98,1.575-2.135,3.068-3.499,4.432c-8.841,8.852-22.871,9.797-32.809,2.204
	l-62.759-47.807l-14.031-10.695l-55.225-42.069l21.565-53.884l3.289-0.163l23.571-1.154l25.671-1.248l3.499,4.595l-1.167,0.886
	l-13.495,10.275l-14.031,10.695l-9.036,6.885c-7.665,5.843-7.664,17.38,0.003,23.22l32.534,24.781l14.031,10.695l70.212,53.487
	C415.593,402.545,419.629,404.131,423.757,404.715z"/>
<path style="fill:#F7B239;" d="M346.488,241.407l-16.958,12.923l-15.278,11.64l-7.022,5.342l-7.021,5.342l-44.775,34.126
	l-55.249,42.08l-14.031,10.695l-62.759,47.807c-9.949,7.581-23.968,6.636-32.82-2.216c-8.84-8.841-9.786-22.871-2.204-32.82
	l87.835-115.302l5.108-6.707l0.245-0.315l5.342-7.022l55.843-73.291l5.342-7.021l5.295-6.94l2.041-2.682l2.905-3.814
	c16.422-21.554,45.755-26.662,68.113-13.961c4.036,2.287,7.838,5.155,11.302,8.619l14.089,14.101
	c0.198,0.198,0.384,0.384,0.571,0.583c1.633,1.68,3.137,3.452,4.49,5.283C373.886,190.65,369.861,223.609,346.488,241.407z"/>
<path style="fill:#E09B2D;" d="M130.034,390.7c-8.841-8.84-9.786-22.871-2.205-32.82l92.944-122.009l0.245-0.315l66.526-87.333
	l7.336-9.622l2.905-3.814c0.619-0.814,1.263-1.595,1.918-2.361c-15.6,0.201-31.044,7.246-41.376,20.807l-2.905,3.814l-7.336,9.622
	l-66.526,87.333l-0.245,0.315l-92.943,122.01c-7.581,9.949-6.636,23.98,2.205,32.82c8.852,8.852,22.871,9.797,32.82,2.216
	l18.435-14.042C137.492,396.271,133.39,394.057,130.034,390.7z"/>
<g>
	<path style="fill:#995C0D;" d="M275.53,194.113c-1.703,1.714-3.942,2.566-6.181,2.566s-4.478-0.852-6.181-2.566l-20.423-20.423
		l5.342-7.021l5.295-6.94c0.315,0.221,0.607,0.478,0.886,0.758l21.262,21.262C278.947,185.168,278.947,190.695,275.53,194.113z"/>
	<path style="fill:#995C0D;" d="M314.252,265.97l-7.022,5.342l-7.021,5.342l-23.723-23.723c-3.418-3.418-3.418-8.946,0-12.363
		c3.418-3.418,8.945-3.418,12.363,0L314.252,265.97z"/>
	<path style="fill:#995C0D;" d="M202.472,274.904c-1.703,1.714-3.942,2.566-6.181,2.566s-4.478-0.852-6.181-2.555l-13.903-13.89
		l5.108-6.707l0.245-0.315l5.342-7.022l15.57,15.547C205.89,265.947,205.89,271.487,202.472,274.904z"/>
	<path style="fill:#995C0D;" d="M200.186,352.86l-14.031,10.695l-20.445-20.457c-3.418-3.418-3.418-8.957,0-12.363
		c3.418-3.418,8.957-3.418,12.363,0L200.186,352.86z"/>
	<path style="fill:#995C0D;" d="M345.136,343.098l-3.266,3.266l-17.18,17.18l-14.031-10.695l17.179-17.179l4.933-4.933
		c3.418-3.418,8.945-3.418,12.363,0C348.554,334.153,348.554,339.681,345.136,343.098z"/>
	<path style="fill:#995C0D;" d="M174.889,210.442l-20.726,20.726c-1.831-2.403-3.429-4.945-4.782-7.581
		c-1.458-2.834-2.648-5.785-3.557-8.805l16.701-16.701c3.418-3.418,8.946-3.418,12.363,0
		C178.306,201.496,178.306,207.024,174.889,210.442z"/>
	<path style="fill:#995C0D;" d="M400.699,347.74l-14.299,14.298c-1.703,1.714-3.942,2.566-6.181,2.566
		c-2.24,0-4.478-0.852-6.181-2.566c-3.418-3.418-3.418-8.945,0-12.363l15.967-15.967L400.699,347.74z"/>
</g>
</svg>